HIERARCHY
ROOT Hips
{
	OFFSET 0.00 0.00 0.00
	CHANNELS 6 Xposition Yposition Zposition Zrotation Xrotation Yrotation
	JOINT Chest
	{
		OFFSET 5.00 0.00 0.00
		CHANNELS 3 Zrotation Xrotation Yrotation
		End Site
		{
			OFFSET 0.00 5.00 0.00
		}
	}
	JOINT Leg
	{
		OFFSET -5.0 0.0 0.0
		CHANNELS 3 Zrotation Xrotation Yrotation
		End Site
		{
			OFFSET 0.0 5.0 0.0
		}
	}
}
MOTION
Frames:		3
Frame Time: 0.033333
 0.00 0.00 0.00 0.00 0.00 0.00  0.00 0.00 0.00  0.00 0.00 0.00
 10.00 0.00 0.00 0.00 0.00 0.00  0.00 0.00 0.00  0.00 0.00 0.00
 10.00 0.00 0.00 0.00 0.00 45.00  0.00 0.00 0.00  0.00 0.00 0.00
